<svg width="55" height="55" viewBox="0 0 55 55" fill="none" xmlns="http://www.w3.org/2000/svg">
<path d="M27.5 20.75C28.7426 20.75 29.75 19.7426 29.75 18.5C29.75 17.2574 28.7426 16.25 27.5 16.25C26.2574 16.25 25.25 17.2574 25.25 18.5C25.25 19.7426 26.2574 20.75 27.5 20.75Z" stroke="white" stroke-width="2" stroke-linecap="round" stroke-linejoin="round"/>
<path d="M19.5463 26.4538C17.4372 24.3441 16.2524 21.4831 16.2524 18.5C16.2524 15.5169 17.4372 12.656 19.5463 10.5463M32.27 13.73C32.8976 14.3569 33.3955 15.1014 33.7352 15.9208C34.0748 16.7402 34.2497 17.6186 34.2497 18.5056C34.2497 19.3927 34.0748 20.2711 33.7352 21.0905C33.3955 21.9099 32.8976 22.6544 32.27 23.2813V13.73ZM22.73 23.27C22.1024 22.6431 21.6045 21.8987 21.2648 21.0792C20.9252 20.2598 20.7503 19.3814 20.7503 18.4944C20.7503 17.6073 20.9252 16.729 21.2648 15.9095C21.6045 15.0901 22.1024 14.3457 22.73 13.7188V23.27ZM35.4537 10.5463C37.5628 12.656 38.7476 15.5169 38.7476 18.5C38.7476 21.4831 37.5628 24.3441 35.4537 26.4538V10.5463Z" stroke="white" stroke-width="2" stroke-linecap="round" stroke-linejoin="round"/>
<path d="M16.9495 41.898C17.8135 41.67 18.5665 41.556 19.2085 41.556C20.5825 41.556 21.2695 42.033 21.2695 42.987C21.2695 43.569 20.9965 44.013 20.4505 44.319C20.8165 44.409 21.1195 44.583 21.3595 44.841C21.5995 45.093 21.7195 45.411 21.7195 45.795C21.7195 46.515 21.4525 47.073 20.9185 47.469C20.3845 47.859 19.7245 48.054 18.9385 48.054C18.1525 48.054 17.4715 47.898 16.8955 47.586C17.0815 46.938 17.1745 46.065 17.1745 44.967C17.1745 43.863 17.0995 42.84 16.9495 41.898ZM18.3085 47.082C18.5725 47.166 18.8365 47.208 19.1005 47.208C19.5145 47.208 19.8565 47.106 20.1265 46.902C20.3965 46.692 20.5315 46.398 20.5315 46.02C20.5315 45.3 20.1415 44.94 19.3615 44.94C18.9895 44.94 18.6115 45.018 18.2275 45.174C18.2275 45.78 18.2545 46.416 18.3085 47.082ZM18.2185 44.382C18.3025 44.364 18.4255 44.343 18.5875 44.319C18.7555 44.295 18.8845 44.274 18.9745 44.256C19.0645 44.238 19.1755 44.211 19.3075 44.175C19.4455 44.139 19.5505 44.097 19.6225 44.049C19.7005 43.995 19.7785 43.929 19.8565 43.851C20.0065 43.701 20.0815 43.482 20.0815 43.194C20.0815 42.636 19.7485 42.357 19.0825 42.357C18.8665 42.357 18.6025 42.393 18.2905 42.465C18.2425 43.695 18.2185 44.334 18.2185 44.382ZM22.6171 41.718C22.8091 41.646 23.0161 41.61 23.2381 41.61C23.7721 41.61 24.0391 41.853 24.0391 42.339C24.0391 42.603 24.0091 43.038 23.9491 43.644C23.8891 44.244 23.8591 44.868 23.8591 45.516C23.8591 46.164 23.8801 46.701 23.9221 47.127C24.0841 47.145 24.2461 47.154 24.4081 47.154C25.2001 47.154 25.8961 47.022 26.4961 46.758C26.5681 46.92 26.6041 47.103 26.6041 47.307C26.6041 47.511 26.5321 47.688 26.3881 47.838C26.2501 47.982 26.0791 48.054 25.8751 48.054C25.4491 48.054 24.5161 48.018 23.0761 47.946C22.9621 47.94 22.8631 47.907 22.7791 47.847C22.6951 47.781 22.6531 47.7 22.6531 47.604C22.6531 47.286 22.6771 46.749 22.7251 45.993C22.7791 45.237 22.8061 44.541 22.8061 43.905C22.8061 43.263 22.7431 42.534 22.6171 41.718ZM31.4702 44.724C31.4702 44.01 31.3232 43.434 31.0292 42.996C30.7412 42.552 30.2882 42.33 29.6702 42.33C29.2982 42.33 28.9682 42.45 28.6802 42.69C28.5182 42.942 28.3892 43.281 28.2932 43.707C28.2032 44.133 28.1582 44.538 28.1582 44.922C28.1582 45.63 28.3022 46.197 28.5902 46.623C28.8782 47.049 29.3342 47.262 29.9582 47.262C30.3002 47.262 30.5912 47.124 30.8312 46.848C31.2572 46.35 31.4702 45.642 31.4702 44.724ZM29.6522 48.108C28.7762 48.108 28.1102 47.82 27.6542 47.244C27.1982 46.662 26.9702 45.903 26.9702 44.967C26.9702 44.025 27.2522 43.212 27.8162 42.528C28.3802 41.844 29.0972 41.502 29.9672 41.502C30.8432 41.502 31.5092 41.796 31.9652 42.384C32.4272 42.972 32.6582 43.737 32.6582 44.679C32.6582 45.621 32.3762 46.428 31.8122 47.1C31.2482 47.772 30.5282 48.108 29.6522 48.108ZM36.6936 45.012L37.6566 44.94C38.0166 44.94 38.1966 45.123 38.1966 45.489C38.1966 45.699 38.1696 46.026 38.1156 46.47C38.0616 46.914 38.0346 47.274 38.0346 47.55C37.8846 47.574 37.5486 47.664 37.0266 47.82C36.5106 47.976 36.0786 48.054 35.7306 48.054C34.8786 48.054 34.2336 47.79 33.7956 47.262C33.3636 46.734 33.1476 46.014 33.1476 45.102C33.1476 44.454 33.2646 43.86 33.4986 43.32C33.7386 42.78 34.0926 42.342 34.5606 42.006C35.0286 41.67 35.5446 41.502 36.1086 41.502C36.6786 41.502 37.1526 41.634 37.5306 41.898C37.9146 42.162 38.1066 42.519 38.1066 42.969C38.1066 43.221 38.0316 43.434 37.8816 43.608C37.7376 43.776 37.5516 43.86 37.3236 43.86C37.0956 43.86 36.9366 43.833 36.8466 43.779C36.8646 43.671 36.8736 43.563 36.8736 43.455C36.8736 43.137 36.7836 42.879 36.6036 42.681C36.4236 42.477 36.1686 42.375 35.8386 42.375C35.5086 42.375 35.1966 42.486 34.9026 42.708C34.7286 42.954 34.5936 43.29 34.4976 43.716C34.4016 44.142 34.3536 44.556 34.3536 44.958C34.3536 45.606 34.4796 46.14 34.7316 46.56C34.9836 46.974 35.3826 47.181 35.9286 47.181C36.3306 47.181 36.7056 47.064 37.0536 46.83C37.0776 46.596 37.0896 46.26 37.0896 45.822C36.8496 45.894 36.6636 45.93 36.5316 45.93C36.2016 45.93 36.0366 45.756 36.0366 45.408C36.0366 45.258 36.0666 45.099 36.1266 44.931C36.2886 44.985 36.4776 45.012 36.6936 45.012Z" fill="#FFE4E4"/>
</svg>
