<svg width="55" height="55" viewBox="0 0 55 55" fill="none" xmlns="http://www.w3.org/2000/svg">
<path d="M32 7H22C19.2386 7 17 9.23858 17 12V22C17 24.7614 19.2386 27 22 27H32C34.7614 27 37 24.7614 37 22V12C37 9.23858 34.7614 7 32 7Z" stroke="white" stroke-width="2" stroke-linecap="round" stroke-linejoin="round"/>
<path d="M31 16.37C31.1234 17.2022 30.9813 18.0522 30.5938 18.799C30.2063 19.5458 29.5932 20.1514 28.8416 20.5297C28.0901 20.9079 27.2385 21.0396 26.4078 20.9059C25.5771 20.7723 24.8098 20.3801 24.2149 19.7852C23.6199 19.1902 23.2277 18.4229 23.0941 17.5922C22.9604 16.7615 23.0921 15.9099 23.4703 15.1584C23.8486 14.4069 24.4542 13.7937 25.201 13.4062C25.9478 13.0187 26.7978 12.8766 27.63 13C28.4789 13.1259 29.2649 13.5215 29.8717 14.1283C30.4785 14.7351 30.8741 15.5211 31 16.37Z" stroke="white" stroke-width="2" stroke-linecap="round" stroke-linejoin="round"/>
<path d="M32.5 11.5H32.51" stroke="white" stroke-width="2" stroke-linecap="round" stroke-linejoin="round"/>
<path d="M5.89755 47.892C5.70555 47.964 5.50155 48 5.28555 48C5.06955 48 4.88055 47.931 4.71855 47.793C4.56255 47.655 4.48455 47.466 4.48455 47.226C4.48455 46.986 4.51455 46.527 4.57455 45.849C4.63455 45.165 4.66455 44.619 4.66455 44.211C4.66455 43.161 4.60155 42.33 4.47555 41.718C4.66755 41.646 4.87155 41.61 5.08755 41.61C5.30355 41.61 5.48955 41.679 5.64555 41.817C5.80755 41.955 5.88855 42.144 5.88855 42.384C5.88855 42.624 5.85855 43.086 5.79855 43.77C5.73855 44.448 5.70855 44.991 5.70855 45.399C5.70855 46.449 5.77155 47.28 5.89755 47.892ZM10.7064 41.7C10.8984 41.604 11.0994 41.556 11.3094 41.556C11.5254 41.556 11.6994 41.622 11.8314 41.754C11.9694 41.886 12.0384 42.045 12.0384 42.231C12.0384 42.417 12.0114 42.828 11.9574 43.464C11.9034 44.094 11.8764 44.595 11.8764 44.967C11.8764 46.161 11.9304 47.154 12.0384 47.946C11.8464 48.018 11.6304 48.054 11.3904 48.054C11.1564 48.054 10.9734 48.015 10.8414 47.937C10.4574 47.715 9.56043 46.311 8.15043 43.725C8.12643 43.959 8.11443 44.508 8.11443 45.372C8.11443 46.23 8.18043 47.07 8.31243 47.892C8.12643 47.964 7.92543 48 7.70943 48C7.49343 48 7.31643 47.931 7.17843 47.793C7.04643 47.655 6.98043 47.49 6.98043 47.298C6.98043 47.106 7.00743 46.704 7.06143 46.092C7.12143 45.48 7.15143 45.018 7.15143 44.706C7.15143 43.512 7.09443 42.522 6.98043 41.736C7.14843 41.652 7.39443 41.61 7.71843 41.61C8.04243 41.61 8.27043 41.739 8.40243 41.997C9.29043 43.803 10.1394 45.333 10.9494 46.587C10.9314 45.435 10.9224 44.826 10.9224 44.76C10.9224 43.638 10.8504 42.618 10.7064 41.7ZM15.8186 43.554C15.8426 43.434 15.8546 43.311 15.8546 43.185C15.8546 42.603 15.5696 42.312 14.9996 42.312C14.7416 42.312 14.5226 42.366 14.3426 42.474C14.1746 42.672 14.0906 42.909 14.0906 43.185C14.0906 43.365 14.1686 43.521 14.3246 43.653C14.4806 43.779 14.6726 43.878 14.9006 43.95C15.1346 44.022 15.3866 44.112 15.6566 44.22C15.9266 44.328 16.1756 44.445 16.4036 44.571C16.6376 44.691 16.8326 44.874 16.9886 45.12C17.1446 45.36 17.2226 45.645 17.2226 45.975C17.2226 46.605 16.9796 47.118 16.4936 47.514C16.0136 47.91 15.4346 48.108 14.7566 48.108C14.2106 48.108 13.7456 47.973 13.3616 47.703C12.9836 47.427 12.7946 47.043 12.7946 46.551C12.7946 46.299 12.8696 46.089 13.0196 45.921C13.1756 45.747 13.3586 45.66 13.5686 45.66C13.7846 45.66 13.9436 45.687 14.0456 45.741C13.9976 45.921 13.9736 46.083 13.9736 46.227C13.9736 46.551 14.0636 46.809 14.2436 47.001C14.4296 47.187 14.6846 47.28 15.0086 47.28C15.3326 47.28 15.5936 47.196 15.7916 47.028C15.9896 46.86 16.0886 46.638 16.0886 46.362C16.0886 46.08 15.9776 45.849 15.7556 45.669C15.5396 45.489 15.2756 45.345 14.9636 45.237C14.6516 45.129 14.3396 45.015 14.0276 44.895C13.7156 44.775 13.4486 44.598 13.2266 44.364C13.0106 44.124 12.9026 43.824 12.9026 43.464C12.9026 42.9 13.1456 42.432 13.6316 42.06C14.1236 41.688 14.6786 41.502 15.2966 41.502C15.7526 41.502 16.1456 41.595 16.4756 41.781C16.8116 41.961 16.9796 42.237 16.9796 42.609C16.9796 42.879 16.8926 43.11 16.7186 43.302C16.5446 43.488 16.3256 43.581 16.0616 43.581C15.9896 43.581 15.9086 43.572 15.8186 43.554ZM18.2623 41.583L20.1613 41.61C21.1453 41.61 21.8653 41.574 22.3213 41.502C22.3873 41.628 22.4203 41.772 22.4203 41.934C22.4203 42.096 22.3483 42.243 22.2043 42.375C22.0603 42.501 21.8863 42.564 21.6823 42.564L20.6473 42.447C20.6473 42.489 20.6323 42.675 20.6023 43.005C20.5183 43.815 20.4763 44.628 20.4763 45.444C20.4763 46.26 20.5393 47.076 20.6653 47.892C20.4673 47.964 20.2603 48 20.0443 48C19.8283 48 19.6423 47.94 19.4863 47.82C19.3303 47.694 19.2523 47.508 19.2523 47.262C19.2523 47.01 19.2823 46.569 19.3423 45.939C19.4023 45.309 19.4323 44.697 19.4323 44.103C19.4323 43.503 19.4023 42.945 19.3423 42.429C18.6163 42.465 18.0493 42.567 17.6413 42.735C17.5693 42.597 17.5333 42.444 17.5333 42.276C17.5333 42.102 17.6023 41.943 17.7403 41.799C17.8783 41.655 18.0523 41.583 18.2623 41.583ZM23.7933 41.682C24.0453 41.598 24.2733 41.556 24.4773 41.556C24.7893 41.556 25.0323 41.667 25.2063 41.889C25.3803 42.105 25.5153 42.414 25.6113 42.816C25.6413 42.936 25.7013 43.2 25.7913 43.608C25.8873 44.016 25.9653 44.346 26.0253 44.598C26.2113 45.384 26.3793 45.993 26.5293 46.425C26.6853 46.857 26.9313 47.202 27.2673 47.46C27.1953 47.64 27.0753 47.784 26.9073 47.892C26.7453 48 26.5683 48.054 26.3763 48.054C25.9383 48.054 25.6173 47.724 25.4133 47.064C25.3173 46.758 25.2303 46.458 25.1523 46.164C24.9423 46.236 24.6813 46.272 24.3693 46.272C24.0633 46.272 23.6853 46.239 23.2353 46.173C23.0493 46.899 22.9563 47.445 22.9563 47.811C22.9563 47.889 22.9593 47.946 22.9653 47.982C22.8873 47.994 22.7553 48 22.5693 48C22.3833 48 22.2183 47.943 22.0743 47.829C21.9363 47.709 21.8673 47.541 21.8673 47.325C21.8673 47.025 22.1553 46.146 22.7313 44.688C23.3073 43.23 23.6613 42.228 23.7933 41.682ZM23.4423 45.417C23.6823 45.447 23.9253 45.462 24.1713 45.462C24.4233 45.462 24.6903 45.435 24.9723 45.381C24.9183 45.135 24.7353 44.193 24.4233 42.555C24.0513 43.521 23.7243 44.475 23.4423 45.417ZM31.0765 45.012L32.0395 44.94C32.3995 44.94 32.5795 45.123 32.5795 45.489C32.5795 45.699 32.5525 46.026 32.4985 46.47C32.4445 46.914 32.4175 47.274 32.4175 47.55C32.2675 47.574 31.9315 47.664 31.4095 47.82C30.8935 47.976 30.4615 48.054 30.1135 48.054C29.2615 48.054 28.6165 47.79 28.1785 47.262C27.7465 46.734 27.5305 46.014 27.5305 45.102C27.5305 44.454 27.6475 43.86 27.8815 43.32C28.1215 42.78 28.4755 42.342 28.9435 42.006C29.4115 41.67 29.9275 41.502 30.4915 41.502C31.0615 41.502 31.5355 41.634 31.9135 41.898C32.2975 42.162 32.4895 42.519 32.4895 42.969C32.4895 43.221 32.4145 43.434 32.2645 43.608C32.1205 43.776 31.9345 43.86 31.7065 43.86C31.4785 43.86 31.3195 43.833 31.2295 43.779C31.2475 43.671 31.2565 43.563 31.2565 43.455C31.2565 43.137 31.1665 42.879 30.9865 42.681C30.8065 42.477 30.5515 42.375 30.2215 42.375C29.8915 42.375 29.5795 42.486 29.2855 42.708C29.1115 42.954 28.9765 43.29 28.8805 43.716C28.7845 44.142 28.7365 44.556 28.7365 44.958C28.7365 45.606 28.8625 46.14 29.1145 46.56C29.3665 46.974 29.7655 47.181 30.3115 47.181C30.7135 47.181 31.0885 47.064 31.4365 46.83C31.4605 46.596 31.4725 46.26 31.4725 45.822C31.2325 45.894 31.0465 45.93 30.9145 45.93C30.5845 45.93 30.4195 45.756 30.4195 45.408C30.4195 45.258 30.4495 45.099 30.5095 44.931C30.6715 44.985 30.8605 45.012 31.0765 45.012ZM36.4203 44.94C36.6903 45.51 37.0323 46.008 37.4463 46.434C37.8603 46.86 38.2713 47.136 38.6793 47.262C38.6793 47.514 38.6133 47.709 38.4813 47.847C38.3493 47.985 38.1603 48.054 37.9143 48.054C37.5963 48.054 37.2333 47.85 36.8253 47.442C36.4173 47.028 36.0603 46.542 35.7543 45.984C35.4543 45.42 35.2773 44.925 35.2233 44.499C35.6553 44.499 36.0093 44.385 36.2853 44.157C36.5673 43.923 36.7083 43.593 36.7083 43.167C36.7083 42.627 36.3723 42.357 35.7003 42.357C35.4843 42.357 35.2203 42.393 34.9083 42.465C34.8663 43.275 34.8453 43.929 34.8453 44.427C34.8453 46.023 34.9083 47.178 35.0343 47.892C34.8423 47.964 34.6383 48 34.4223 48C34.2063 48 34.0173 47.931 33.8553 47.793C33.6993 47.655 33.6213 47.472 33.6213 47.244C33.6213 47.016 33.6513 46.62 33.7113 46.056C33.7713 45.486 33.8013 45.03 33.8013 44.688C33.8013 43.638 33.7263 42.705 33.5763 41.889C34.3863 41.667 35.1573 41.556 35.8893 41.556C37.2273 41.556 37.8963 42.033 37.8963 42.987C37.8963 43.407 37.7523 43.803 37.4643 44.175C37.1823 44.541 36.8343 44.796 36.4203 44.94ZM40.7826 41.682C41.0346 41.598 41.2626 41.556 41.4666 41.556C41.7786 41.556 42.0216 41.667 42.1956 41.889C42.3696 42.105 42.5046 42.414 42.6006 42.816C42.6306 42.936 42.6906 43.2 42.7806 43.608C42.8766 44.016 42.9546 44.346 43.0146 44.598C43.2006 45.384 43.3686 45.993 43.5186 46.425C43.6746 46.857 43.9206 47.202 44.2566 47.46C44.1846 47.64 44.0646 47.784 43.8966 47.892C43.7346 48 43.5576 48.054 43.3656 48.054C42.9276 48.054 42.6066 47.724 42.4026 47.064C42.3066 46.758 42.2196 46.458 42.1416 46.164C41.9316 46.236 41.6706 46.272 41.3586 46.272C41.0526 46.272 40.6746 46.239 40.2246 46.173C40.0386 46.899 39.9456 47.445 39.9456 47.811C39.9456 47.889 39.9486 47.946 39.9546 47.982C39.8766 47.994 39.7446 48 39.5586 48C39.3726 48 39.2076 47.943 39.0636 47.829C38.9256 47.709 38.8566 47.541 38.8566 47.325C38.8566 47.025 39.1446 46.146 39.7206 44.688C40.2966 43.23 40.6506 42.228 40.7826 41.682ZM40.4316 45.417C40.6716 45.447 40.9146 45.462 41.1606 45.462C41.4126 45.462 41.6796 45.435 41.9616 45.381C41.9076 45.135 41.7246 44.193 41.4126 42.555C41.0406 43.521 40.7136 44.475 40.4316 45.417ZM51.3147 42.114L51.2697 43.599C51.2697 44.415 51.2937 45.147 51.3417 45.795C51.3897 46.437 51.4977 47.136 51.6657 47.892C51.5337 48 51.3237 48.054 51.0357 48.054C50.4777 48.054 50.1987 47.811 50.1987 47.325C50.1987 46.923 50.2167 46.308 50.2527 45.48C50.2947 44.652 50.3157 44.004 50.3157 43.536C49.9917 44.004 49.6497 44.583 49.2897 45.273C48.9357 45.957 48.7587 46.377 48.7587 46.533C48.7587 46.689 48.7737 46.809 48.8037 46.893C48.6717 46.977 48.4947 47.019 48.2727 47.019C48.0567 47.019 47.8737 46.959 47.7237 46.839C47.5797 46.719 47.4567 46.554 47.3547 46.344C47.2587 46.134 47.0847 45.723 46.8327 45.111C46.5867 44.493 46.3617 43.962 46.1577 43.518C46.0017 44.484 45.9237 45.339 45.9237 46.083C45.9237 46.827 45.9477 47.43 45.9957 47.892C45.8037 47.964 45.6117 48 45.4197 48C45.0357 48 44.8437 47.808 44.8437 47.424C44.8437 47.13 44.9097 46.545 45.0417 45.669C45.1797 44.787 45.2487 44.043 45.2487 43.437C45.2487 42.831 45.2157 42.264 45.1497 41.736C45.4737 41.652 45.7257 41.61 45.9057 41.61C46.2357 41.61 46.4577 41.727 46.5717 41.961C46.7517 42.339 47.0157 42.942 47.3637 43.77C47.7177 44.592 48.0057 45.225 48.2277 45.669C48.2877 45.543 48.4257 45.273 48.6417 44.859C48.8637 44.439 49.0467 44.082 49.1907 43.788C49.3407 43.488 49.4907 43.134 49.6407 42.726C49.7967 42.312 49.8957 41.952 49.9377 41.646C50.1537 41.586 50.3637 41.556 50.5677 41.556C50.7777 41.556 50.9547 41.601 51.0987 41.691C51.2427 41.781 51.3147 41.922 51.3147 42.114Z" fill="#FFE4E4"/>
</svg>
