<svg width="55" height="55" viewBox="0 0 55 55" fill="none" xmlns="http://www.w3.org/2000/svg">
<path d="M32 14C33.7902 14 35.5071 14.7112 36.773 15.977C38.0388 17.2429 38.75 18.9598 38.75 20.75V28.625H34.25V20.75C34.25 20.1533 34.0129 19.581 33.591 19.159C33.169 18.7371 32.5967 18.5 32 18.5C31.4033 18.5 30.831 18.7371 30.409 19.159C29.9871 19.581 29.75 20.1533 29.75 20.75V28.625H25.25V20.75C25.25 18.9598 25.9612 17.2429 27.227 15.977C28.4929 14.7112 30.2098 14 32 14V14Z" stroke="white" stroke-width="2" stroke-linecap="round" stroke-linejoin="round"/>
<path d="M20.75 15.125H16.25V28.625H20.75V15.125Z" stroke="white" stroke-width="2" stroke-linecap="round" stroke-linejoin="round"/>
<path d="M18.5 11.75C19.7426 11.75 20.75 10.7426 20.75 9.5C20.75 8.25736 19.7426 7.25 18.5 7.25C17.2574 7.25 16.25 8.25736 16.25 9.5C16.25 10.7426 17.2574 11.75 18.5 11.75Z" stroke="white" stroke-width="2" stroke-linecap="round" stroke-linejoin="round"/>
<path d="M8.91061 41.718C9.10261 41.646 9.30961 41.61 9.53161 41.61C10.0656 41.61 10.3326 41.853 10.3326 42.339C10.3326 42.603 10.3026 43.038 10.2426 43.644C10.1826 44.244 10.1526 44.868 10.1526 45.516C10.1526 46.164 10.1736 46.701 10.2156 47.127C10.3776 47.145 10.5396 47.154 10.7016 47.154C11.4936 47.154 12.1896 47.022 12.7896 46.758C12.8616 46.92 12.8976 47.103 12.8976 47.307C12.8976 47.511 12.8256 47.688 12.6816 47.838C12.5436 47.982 12.3726 48.054 12.1686 48.054C11.7426 48.054 10.8096 48.018 9.36961 47.946C9.25561 47.94 9.15661 47.907 9.07261 47.847C8.98861 47.781 8.94661 47.7 8.94661 47.604C8.94661 47.286 8.97061 46.749 9.01861 45.993C9.07261 45.237 9.09961 44.541 9.09961 43.905C9.09961 43.263 9.03661 42.534 8.91061 41.718ZM14.9557 47.892C14.7637 47.964 14.5597 48 14.3437 48C14.1277 48 13.9387 47.931 13.7767 47.793C13.6207 47.655 13.5427 47.466 13.5427 47.226C13.5427 46.986 13.5727 46.527 13.6327 45.849C13.6927 45.165 13.7227 44.619 13.7227 44.211C13.7227 43.161 13.6597 42.33 13.5337 41.718C13.7257 41.646 13.9297 41.61 14.1457 41.61C14.3617 41.61 14.5477 41.679 14.7037 41.817C14.8657 41.955 14.9467 42.144 14.9467 42.384C14.9467 42.624 14.9167 43.086 14.8567 43.77C14.7967 44.448 14.7667 44.991 14.7667 45.399C14.7667 46.449 14.8297 47.28 14.9557 47.892ZM19.7645 41.7C19.9565 41.604 20.1575 41.556 20.3675 41.556C20.5835 41.556 20.7575 41.622 20.8895 41.754C21.0275 41.886 21.0965 42.045 21.0965 42.231C21.0965 42.417 21.0695 42.828 21.0155 43.464C20.9615 44.094 20.9345 44.595 20.9345 44.967C20.9345 46.161 20.9885 47.154 21.0965 47.946C20.9045 48.018 20.6885 48.054 20.4485 48.054C20.2145 48.054 20.0315 48.015 19.8995 47.937C19.5155 47.715 18.6185 46.311 17.2085 43.725C17.1845 43.959 17.1725 44.508 17.1725 45.372C17.1725 46.23 17.2385 47.07 17.3705 47.892C17.1845 47.964 16.9835 48 16.7675 48C16.5515 48 16.3745 47.931 16.2365 47.793C16.1045 47.655 16.0385 47.49 16.0385 47.298C16.0385 47.106 16.0655 46.704 16.1195 46.092C16.1795 45.48 16.2095 45.018 16.2095 44.706C16.2095 43.512 16.1525 42.522 16.0385 41.736C16.2065 41.652 16.4525 41.61 16.7765 41.61C17.1005 41.61 17.3285 41.739 17.4605 41.997C18.3485 43.803 19.1975 45.333 20.0075 46.587C19.9895 45.435 19.9805 44.826 19.9805 44.76C19.9805 43.638 19.9085 42.618 19.7645 41.7ZM24.7237 44.49C25.0357 45.126 25.4167 45.717 25.8667 46.263C26.3227 46.809 26.7487 47.142 27.1447 47.262C27.1447 47.514 27.0787 47.709 26.9467 47.847C26.8147 47.985 26.6257 48.054 26.3797 48.054C26.0557 48.054 25.6807 47.829 25.2547 47.379C24.8347 46.923 24.4657 46.413 24.1477 45.849C23.8297 45.285 23.6077 44.79 23.4817 44.364C24.0757 44.106 24.5827 43.707 25.0027 43.167C25.4227 42.621 25.6327 42.084 25.6327 41.556C25.8907 41.556 26.1127 41.601 26.2987 41.691C26.4907 41.781 26.5867 41.925 26.5867 42.123C26.5867 42.435 26.4007 42.813 26.0287 43.257C25.6567 43.701 25.2217 44.112 24.7237 44.49ZM23.4547 47.892C23.2627 47.964 23.0587 48 22.8427 48C22.6267 48 22.4377 47.931 22.2757 47.793C22.1197 47.655 22.0417 47.466 22.0417 47.226C22.0417 46.986 22.0717 46.527 22.1317 45.849C22.1917 45.165 22.2217 44.619 22.2217 44.211C22.2217 43.161 22.1587 42.33 22.0327 41.718C22.2247 41.646 22.4287 41.61 22.6447 41.61C22.8607 41.61 23.0467 41.679 23.2027 41.817C23.3647 41.955 23.4457 42.144 23.4457 42.384C23.4457 42.624 23.4157 43.086 23.3557 43.77C23.2957 44.448 23.2657 44.991 23.2657 45.399C23.2657 46.449 23.3287 47.28 23.4547 47.892ZM31.8485 46.758C31.9205 46.92 31.9565 47.103 31.9565 47.307C31.9565 47.511 31.8845 47.688 31.7405 47.838C31.6025 47.982 31.4315 48.054 31.2275 48.054C30.5915 48.054 29.5955 48.018 28.2395 47.946C28.1315 47.94 28.0355 47.907 27.9515 47.847C27.8675 47.781 27.8255 47.7 27.8255 47.604C27.8255 47.286 27.8495 46.749 27.8975 45.993C27.9515 45.237 27.9785 44.532 27.9785 43.878C27.9785 43.218 27.9155 42.462 27.7895 41.61C28.2335 41.646 28.8305 41.664 29.5805 41.664C30.3305 41.664 31.0475 41.61 31.7315 41.502C31.8035 41.634 31.8395 41.793 31.8395 41.979C31.8395 42.159 31.7675 42.321 31.6235 42.465C31.4855 42.603 31.3115 42.672 31.1015 42.672C30.8975 42.672 30.5675 42.642 30.1115 42.582C29.6615 42.522 29.3285 42.492 29.1125 42.492C29.0645 43.098 29.0375 43.668 29.0315 44.202C29.4095 44.238 29.8145 44.256 30.2465 44.256C30.6845 44.256 31.0595 44.193 31.3715 44.067C31.4435 44.199 31.4795 44.358 31.4795 44.544C31.4795 44.724 31.4075 44.889 31.2635 45.039C31.1255 45.183 30.9575 45.255 30.7595 45.255C30.5675 45.255 30.2795 45.219 29.8955 45.147C29.5115 45.069 29.2205 45.03 29.0225 45.03C29.0225 45.978 29.0435 46.674 29.0855 47.118C29.3735 47.142 29.5985 47.154 29.7605 47.154C30.5525 47.154 31.2485 47.022 31.8485 46.758ZM32.7641 47.595C32.9501 46.701 33.0431 45.774 33.0431 44.814C33.0431 43.854 32.9681 42.882 32.8181 41.898C33.6341 41.67 34.3571 41.556 34.9871 41.556C35.9231 41.556 36.6341 41.802 37.1201 42.294C37.6121 42.78 37.8581 43.521 37.8581 44.517C37.8581 45.513 37.5791 46.353 37.0211 47.037C36.4691 47.715 35.7011 48.054 34.7171 48.054C34.0451 48.054 33.3941 47.901 32.7641 47.595ZM34.1591 42.465C34.1051 43.197 34.0781 43.908 34.0781 44.598C34.0781 45.282 34.1111 46.11 34.1771 47.082C34.4231 47.166 34.6991 47.208 35.0051 47.208C35.3111 47.208 35.5751 47.139 35.7971 47.001C36.0251 46.857 36.1991 46.662 36.3191 46.416C36.5531 45.948 36.6701 45.375 36.6701 44.697C36.6701 44.043 36.5441 43.503 36.2921 43.077C36.0161 42.597 35.5871 42.357 35.0051 42.357C34.6871 42.357 34.4051 42.393 34.1591 42.465ZM40.0924 47.892C39.9004 47.964 39.6964 48 39.4804 48C39.2644 48 39.0754 47.931 38.9134 47.793C38.7574 47.655 38.6794 47.466 38.6794 47.226C38.6794 46.986 38.7094 46.527 38.7694 45.849C38.8294 45.165 38.8594 44.619 38.8594 44.211C38.8594 43.161 38.7964 42.33 38.6704 41.718C38.8624 41.646 39.0664 41.61 39.2824 41.61C39.4984 41.61 39.6844 41.679 39.8404 41.817C40.0024 41.955 40.0834 42.144 40.0834 42.384C40.0834 42.624 40.0534 43.086 39.9934 43.77C39.9334 44.448 39.9034 44.991 39.9034 45.399C39.9034 46.449 39.9664 47.28 40.0924 47.892ZM44.9013 41.7C45.0933 41.604 45.2943 41.556 45.5043 41.556C45.7203 41.556 45.8943 41.622 46.0263 41.754C46.1643 41.886 46.2333 42.045 46.2333 42.231C46.2333 42.417 46.2063 42.828 46.1523 43.464C46.0983 44.094 46.0713 44.595 46.0713 44.967C46.0713 46.161 46.1253 47.154 46.2333 47.946C46.0413 48.018 45.8253 48.054 45.5853 48.054C45.3513 48.054 45.1683 48.015 45.0363 47.937C44.6523 47.715 43.7553 46.311 42.3453 43.725C42.3213 43.959 42.3093 44.508 42.3093 45.372C42.3093 46.23 42.3753 47.07 42.5073 47.892C42.3213 47.964 42.1203 48 41.9043 48C41.6883 48 41.5113 47.931 41.3733 47.793C41.2413 47.655 41.1753 47.49 41.1753 47.298C41.1753 47.106 41.2023 46.704 41.2563 46.092C41.3163 45.48 41.3463 45.018 41.3463 44.706C41.3463 43.512 41.2893 42.522 41.1753 41.736C41.3433 41.652 41.5893 41.61 41.9133 41.61C42.2373 41.61 42.4653 41.739 42.5973 41.997C43.4853 43.803 44.3343 45.333 45.1443 46.587C45.1263 45.435 45.1173 44.826 45.1173 44.76C45.1173 43.638 45.0453 42.618 44.9013 41.7Z" fill="#FFE4E4"/>
</svg>
