<svg width="55" height="55" viewBox="0 0 55 55" fill="none" xmlns="http://www.w3.org/2000/svg">
<path d="M28.5 23C30.9853 23 33 20.9853 33 18.5C33 16.0147 30.9853 14 28.5 14C26.0147 14 24 16.0147 24 18.5C24 20.9853 26.0147 23 28.5 23Z" stroke="#5E3838" stroke-width="2" stroke-linecap="round" stroke-linejoin="round"/>
<path d="M33 14V19.625C33 20.5201 33.3556 21.3785 33.9885 22.0115C34.6214 22.6444 35.4799 23 36.375 23C37.2701 23 38.1285 22.6444 38.7615 22.0115C39.3944 21.3785 39.75 20.5201 39.75 19.625V18.5C39.7498 15.9609 38.8908 13.4965 37.3124 11.5076C35.7341 9.51863 33.5294 8.1221 31.0567 7.54506C28.5841 6.96801 25.9889 7.2444 23.6933 8.32926C21.3976 9.41413 19.5364 11.2437 18.4124 13.5204C17.2884 15.7972 16.9676 18.3872 17.5022 20.8694C18.0368 23.3515 19.3953 25.5799 21.357 27.192C23.3186 28.8042 25.7679 29.7054 28.3066 29.749C30.8453 29.7927 33.3241 28.9762 35.34 27.4325" stroke="#5E3838" stroke-width="2" stroke-linecap="round" stroke-linejoin="round"/>
<path d="M28.1433 42.114L28.0983 43.599C28.0983 44.415 28.1223 45.147 28.1703 45.795C28.2183 46.437 28.3263 47.136 28.4943 47.892C28.3623 48 28.1523 48.054 27.8643 48.054C27.3063 48.054 27.0273 47.811 27.0273 47.325C27.0273 46.923 27.0453 46.308 27.0813 45.48C27.1233 44.652 27.1443 44.004 27.1443 43.536C26.8203 44.004 26.4783 44.583 26.1183 45.273C25.7643 45.957 25.5873 46.377 25.5873 46.533C25.5873 46.689 25.6023 46.809 25.6323 46.893C25.5003 46.977 25.3233 47.019 25.1013 47.019C24.8853 47.019 24.7023 46.959 24.5523 46.839C24.4083 46.719 24.2853 46.554 24.1833 46.344C24.0873 46.134 23.9133 45.723 23.6613 45.111C23.4153 44.493 23.1903 43.962 22.9863 43.518C22.8303 44.484 22.7523 45.339 22.7523 46.083C22.7523 46.827 22.7763 47.43 22.8243 47.892C22.6323 47.964 22.4403 48 22.2483 48C21.8643 48 21.6723 47.808 21.6723 47.424C21.6723 47.13 21.7383 46.545 21.8703 45.669C22.0083 44.787 22.0773 44.043 22.0773 43.437C22.0773 42.831 22.0443 42.264 21.9783 41.736C22.3023 41.652 22.5543 41.61 22.7343 41.61C23.0643 41.61 23.2863 41.727 23.4003 41.961C23.5803 42.339 23.8443 42.942 24.1923 43.77C24.5463 44.592 24.8343 45.225 25.0563 45.669C25.1163 45.543 25.2543 45.273 25.4703 44.859C25.6923 44.439 25.8753 44.082 26.0193 43.788C26.1693 43.488 26.3193 43.134 26.4693 42.726C26.6253 42.312 26.7243 41.952 26.7663 41.646C26.9823 41.586 27.1923 41.556 27.3963 41.556C27.6063 41.556 27.7833 41.601 27.9273 41.691C28.0713 41.781 28.1433 41.922 28.1433 42.114ZM33.4921 46.758C33.5641 46.92 33.6001 47.103 33.6001 47.307C33.6001 47.511 33.5281 47.688 33.3841 47.838C33.2461 47.982 33.0751 48.054 32.8711 48.054C32.2351 48.054 31.2391 48.018 29.8831 47.946C29.7751 47.94 29.6791 47.907 29.5951 47.847C29.5111 47.781 29.4691 47.7 29.4691 47.604C29.4691 47.286 29.4931 46.749 29.5411 45.993C29.5951 45.237 29.6221 44.532 29.6221 43.878C29.6221 43.218 29.5591 42.462 29.4331 41.61C29.8771 41.646 30.4741 41.664 31.2241 41.664C31.9741 41.664 32.6911 41.61 33.3751 41.502C33.4471 41.634 33.4831 41.793 33.4831 41.979C33.4831 42.159 33.4111 42.321 33.2671 42.465C33.1291 42.603 32.9551 42.672 32.7451 42.672C32.5411 42.672 32.2111 42.642 31.7551 42.582C31.3051 42.522 30.9721 42.492 30.7561 42.492C30.7081 43.098 30.6811 43.668 30.6751 44.202C31.0531 44.238 31.4581 44.256 31.8901 44.256C32.3281 44.256 32.7031 44.193 33.0151 44.067C33.0871 44.199 33.1231 44.358 33.1231 44.544C33.1231 44.724 33.0511 44.889 32.9071 45.039C32.7691 45.183 32.6011 45.255 32.4031 45.255C32.2111 45.255 31.9231 45.219 31.5391 45.147C31.1551 45.069 30.8641 45.03 30.6661 45.03C30.6661 45.978 30.6871 46.674 30.7291 47.118C31.0171 47.142 31.2421 47.154 31.4041 47.154C32.1961 47.154 32.8921 47.022 33.4921 46.758Z" fill="#4C605C"/>
</svg>
