<svg width="55" height="55" viewBox="0 0 55 55" fill="none" xmlns="http://www.w3.org/2000/svg">
<path d="M40.875 8.37496C39.7977 9.13487 38.6049 9.71608 37.3425 10.0962C36.665 9.31716 35.7645 8.76499 34.7629 8.51438C33.7613 8.26377 32.7069 8.32681 31.7423 8.69497C30.7777 9.06314 29.9495 9.71866 29.3696 10.5729C28.7897 11.4271 28.4862 12.4388 28.5 13.4712V14.5962C26.523 14.6475 24.5639 14.209 22.7974 13.3198C21.0308 12.4307 19.5116 11.1184 18.375 9.49996C18.375 9.49996 13.875 19.625 24 24.125C21.6831 25.6977 18.9231 26.4863 16.125 26.375C26.25 32 38.625 26.375 38.625 13.4375C38.624 13.1241 38.5938 12.8115 38.535 12.5037C39.6832 11.3714 40.4934 9.94176 40.875 8.37496V8.37496Z" stroke="#5E3838" stroke-width="2" stroke-linecap="round" stroke-linejoin="round"/>
<path d="M10.2169 41.583L12.1159 41.61C13.0999 41.61 13.8199 41.574 14.2759 41.502C14.3419 41.628 14.3749 41.772 14.3749 41.934C14.3749 42.096 14.3029 42.243 14.1589 42.375C14.0149 42.501 13.8409 42.564 13.6369 42.564L12.6019 42.447C12.6019 42.489 12.5869 42.675 12.5569 43.005C12.4729 43.815 12.4309 44.628 12.4309 45.444C12.4309 46.26 12.4939 47.076 12.6199 47.892C12.4219 47.964 12.2149 48 11.9989 48C11.7829 48 11.5969 47.94 11.4409 47.82C11.2849 47.694 11.2069 47.508 11.2069 47.262C11.2069 47.01 11.2369 46.569 11.2969 45.939C11.3569 45.309 11.3869 44.697 11.3869 44.103C11.3869 43.503 11.3569 42.945 11.2969 42.429C10.5709 42.465 10.0039 42.567 9.59587 42.735C9.52387 42.597 9.48787 42.444 9.48787 42.276C9.48787 42.102 9.55687 41.943 9.69487 41.799C9.83287 41.655 10.0069 41.583 10.2169 41.583ZM20.6727 48C20.4867 48.072 20.2857 48.108 20.0697 48.108C19.8537 48.108 19.6857 48.069 19.5657 47.991C19.4457 47.913 19.3467 47.796 19.2687 47.64C19.1547 47.412 19.0257 47.025 18.8817 46.479C18.7377 45.927 18.6237 45.324 18.5397 44.67C18.0357 46.272 17.7477 47.364 17.6757 47.946C17.4117 48.018 17.1747 48.054 16.9647 48.054C16.6227 48.054 16.3707 47.931 16.2087 47.685C16.0467 47.433 15.9297 47.106 15.8577 46.704C15.8577 46.692 15.8127 46.44 15.7227 45.948C15.6327 45.456 15.5667 45.114 15.5247 44.922C15.3867 44.22 15.2427 43.632 15.0927 43.158C14.9487 42.684 14.7357 42.36 14.4537 42.186C14.5257 42.006 14.6367 41.865 14.7867 41.763C14.9367 41.661 15.1047 41.61 15.2907 41.61C15.7047 41.61 16.0017 41.922 16.1817 42.546C16.3077 42.984 16.4577 43.728 16.6317 44.778C16.8057 45.822 16.9347 46.569 17.0187 47.019C17.6967 45.123 18.0357 43.869 18.0357 43.257C18.0357 43.131 18.0207 43.044 17.9907 42.996C18.1167 42.852 18.2937 42.78 18.5217 42.78C18.7557 42.78 18.9357 42.843 19.0617 42.969C19.1937 43.095 19.2987 43.299 19.3767 43.581C19.4547 43.857 19.5627 44.4 19.7007 45.21C19.8447 46.02 19.9557 46.623 20.0337 47.019C20.2737 46.263 20.4627 45.654 20.6007 45.192C20.7447 44.73 20.8917 44.148 21.0417 43.446C21.1977 42.744 21.2757 42.177 21.2757 41.745C21.2757 41.667 21.2727 41.61 21.2667 41.574C21.3447 41.562 21.4767 41.556 21.6627 41.556C21.8487 41.556 22.0107 41.616 22.1487 41.736C22.2927 41.85 22.3647 42.036 22.3647 42.294C22.3647 42.552 22.2687 42.984 22.0767 43.59C21.8907 44.196 21.6477 44.934 21.3477 45.804C21.0537 46.668 20.8287 47.4 20.6727 48ZM24.3687 47.892C24.1767 47.964 23.9727 48 23.7567 48C23.5407 48 23.3517 47.931 23.1897 47.793C23.0337 47.655 22.9557 47.466 22.9557 47.226C22.9557 46.986 22.9857 46.527 23.0457 45.849C23.1057 45.165 23.1357 44.619 23.1357 44.211C23.1357 43.161 23.0727 42.33 22.9467 41.718C23.1387 41.646 23.3427 41.61 23.5587 41.61C23.7747 41.61 23.9607 41.679 24.1167 41.817C24.2787 41.955 24.3597 42.144 24.3597 42.384C24.3597 42.624 24.3297 43.086 24.2697 43.77C24.2097 44.448 24.1797 44.991 24.1797 45.399C24.1797 46.449 24.2427 47.28 24.3687 47.892ZM25.6856 41.583L27.5846 41.61C28.5686 41.61 29.2886 41.574 29.7446 41.502C29.8106 41.628 29.8436 41.772 29.8436 41.934C29.8436 42.096 29.7716 42.243 29.6276 42.375C29.4836 42.501 29.3096 42.564 29.1056 42.564L28.0706 42.447C28.0706 42.489 28.0556 42.675 28.0256 43.005C27.9416 43.815 27.8996 44.628 27.8996 45.444C27.8996 46.26 27.9626 47.076 28.0886 47.892C27.8906 47.964 27.6836 48 27.4676 48C27.2516 48 27.0656 47.94 26.9096 47.82C26.7536 47.694 26.6756 47.508 26.6756 47.262C26.6756 47.01 26.7056 46.569 26.7656 45.939C26.8256 45.309 26.8556 44.697 26.8556 44.103C26.8556 43.503 26.8256 42.945 26.7656 42.429C26.0396 42.465 25.4726 42.567 25.0646 42.735C24.9926 42.597 24.9566 42.444 24.9566 42.276C24.9566 42.102 25.0256 41.943 25.1636 41.799C25.3016 41.655 25.4756 41.583 25.6856 41.583ZM30.6514 41.583L32.5504 41.61C33.5344 41.61 34.2544 41.574 34.7104 41.502C34.7764 41.628 34.8094 41.772 34.8094 41.934C34.8094 42.096 34.7374 42.243 34.5934 42.375C34.4494 42.501 34.2754 42.564 34.0714 42.564L33.0364 42.447C33.0364 42.489 33.0214 42.675 32.9914 43.005C32.9074 43.815 32.8654 44.628 32.8654 45.444C32.8654 46.26 32.9284 47.076 33.0544 47.892C32.8564 47.964 32.6494 48 32.4334 48C32.2174 48 32.0314 47.94 31.8754 47.82C31.7194 47.694 31.6414 47.508 31.6414 47.262C31.6414 47.01 31.6714 46.569 31.7314 45.939C31.7914 45.309 31.8214 44.697 31.8214 44.103C31.8214 43.503 31.7914 42.945 31.7314 42.429C31.0054 42.465 30.4384 42.567 30.0304 42.735C29.9584 42.597 29.9224 42.444 29.9224 42.276C29.9224 42.102 29.9914 41.943 30.1294 41.799C30.2674 41.655 30.4414 41.583 30.6514 41.583ZM39.4423 46.758C39.5143 46.92 39.5503 47.103 39.5503 47.307C39.5503 47.511 39.4783 47.688 39.3343 47.838C39.1963 47.982 39.0253 48.054 38.8213 48.054C38.1853 48.054 37.1893 48.018 35.8333 47.946C35.7253 47.94 35.6293 47.907 35.5453 47.847C35.4613 47.781 35.4193 47.7 35.4193 47.604C35.4193 47.286 35.4433 46.749 35.4913 45.993C35.5453 45.237 35.5723 44.532 35.5723 43.878C35.5723 43.218 35.5093 42.462 35.3833 41.61C35.8273 41.646 36.4243 41.664 37.1743 41.664C37.9243 41.664 38.6413 41.61 39.3253 41.502C39.3973 41.634 39.4333 41.793 39.4333 41.979C39.4333 42.159 39.3613 42.321 39.2173 42.465C39.0793 42.603 38.9053 42.672 38.6953 42.672C38.4913 42.672 38.1613 42.642 37.7053 42.582C37.2553 42.522 36.9223 42.492 36.7063 42.492C36.6583 43.098 36.6313 43.668 36.6253 44.202C37.0033 44.238 37.4083 44.256 37.8403 44.256C38.2783 44.256 38.6533 44.193 38.9653 44.067C39.0373 44.199 39.0733 44.358 39.0733 44.544C39.0733 44.724 39.0013 44.889 38.8573 45.039C38.7193 45.183 38.5513 45.255 38.3533 45.255C38.1613 45.255 37.8733 45.219 37.4893 45.147C37.1053 45.069 36.8143 45.03 36.6163 45.03C36.6163 45.978 36.6373 46.674 36.6793 47.118C36.9673 47.142 37.1923 47.154 37.3543 47.154C38.1463 47.154 38.8423 47.022 39.4423 46.758ZM43.2109 44.94C43.4809 45.51 43.8229 46.008 44.2369 46.434C44.6509 46.86 45.0619 47.136 45.4699 47.262C45.4699 47.514 45.4039 47.709 45.2719 47.847C45.1399 47.985 44.9509 48.054 44.7049 48.054C44.3869 48.054 44.0239 47.85 43.6159 47.442C43.2079 47.028 42.8509 46.542 42.5449 45.984C42.2449 45.42 42.0679 44.925 42.0139 44.499C42.4459 44.499 42.7999 44.385 43.0759 44.157C43.3579 43.923 43.4989 43.593 43.4989 43.167C43.4989 42.627 43.1629 42.357 42.4909 42.357C42.2749 42.357 42.0109 42.393 41.6989 42.465C41.6569 43.275 41.6359 43.929 41.6359 44.427C41.6359 46.023 41.6989 47.178 41.8249 47.892C41.6329 47.964 41.4289 48 41.2129 48C40.9969 48 40.8079 47.931 40.6459 47.793C40.4899 47.655 40.4119 47.472 40.4119 47.244C40.4119 47.016 40.4419 46.62 40.5019 46.056C40.5619 45.486 40.5919 45.03 40.5919 44.688C40.5919 43.638 40.5169 42.705 40.3669 41.889C41.1769 41.667 41.9479 41.556 42.6799 41.556C44.0179 41.556 44.6869 42.033 44.6869 42.987C44.6869 43.407 44.5429 43.803 44.2549 44.175C43.9729 44.541 43.6249 44.796 43.2109 44.94Z" fill="#4C605C"/>
</svg>
